#!OML:ASF I:\Actors\actors\Patient Classification 1\Patient 1\Session 1\Subject1.ASF
:FULLY-SPECIFIED
:DEGREES
99
root -0.925833 17.6196 7.43966 6.14978 10.7649 -6.62642
lowerback 8.60157 5.39069 7.53877
upperback -7.82561 8.54936 0.77998
thorax -12.434 3.45423 -4.89349
lowerneck -8.98439 -10.6051 -6.17574
upperneck 2.39372 -14.0107 9.62496
head 3.27979 -6.67597 3.00684
rclavicle 2.1916e-014 -8.94531e-016
rhumerus 30.1955 10.5224 -74.005
rradius 36.071
rwrist -9.15239
rhand 6.02907 -43.6225
rfingers 7.12502
rthumb 31.351 -70.9564
lclavicle 2.1916e-014 -8.94531e-016
lhumerus -86.2758 53.28 0.194271
lradius 15.345
lwrist -54.575
lhand -14.3209 -15.5276
lfingers 7.12502
lthumb 11.8197 14.1188
rfemur 0.633135 21.1003 27.3453
rtibia 0.101633
rfoot -14.2054 -30.8152
rtoes 10.2828
lfemur -1.93072 -36.0383 -9.28892
ltibia -0.949241
lfoot -4.7162 31.8134
ltoes -13.5214
100
root -0.936486 17.616 7.4638 6.18801 11.6939 -6.7207
lowerback 8.4934 5.32418 7.64033
upperback -8.05244 8.4938 0.846863
thorax -12.6397 3.40689 -4.87071
lowerneck -8.30289 -10.8234 -6.72547
upperneck 2.40838 -14.2894 9.70101
head 3.24041 -6.83752 3.11896
rclavicle 6.38099e-014 6.31141e-015
rhumerus 28.1626 9.16958 -75.0224
rradius 36.9065
rwrist -7.74362
rhand 5.38184 -42.3077
rfingers 7.12502
rthumb 30.7341 -69.7595
lclavicle 6.38099e-014 6.31141e-015
lhumerus -87.1038 52.5236 -0.507683
lradius 15.4025
lwrist -54.6733
lhand -14.0252 -14.1132
lfingers 7.12502
lthumb 12.1048 15.5166
rfemur 0.803865 21.1325 27.6003
rtibia -0.0609013
rfoot -14.7518 -31.5804
rtoes 11.2984
lfemur -2.25978 -36.3078 -8.91463
ltibia -1.02054
lfoot -4.43568 31.238
ltoes -14.2647
101
root -0.946054 17.6131 7.49098 6.15876 12.5764 -6.72799
lowerback 8.2081 5.26455 7.5879
upperback -8.21169 8.40027 0.91025
thorax -12.6801 3.36861 -4.73612
lowerneck -7.81027 -10.9875 -7.14569
upperneck 2.85621 -14.5288 9.62282
head 3.33871 -6.97091 3.14924
rclavicle -1.91206e-014 6.95746e-016
rhumerus 25.7961 7.46217 -76.5857
rradius 37.229
rwrist -6.62298
rhand 4.56247 -40.3863
rfingers 7.12502
rthumb 29.9526 -67.9821
lclavicle -1.91206e-014 6.95746e-016
lhumerus -87.8103 51.8661 -1.11458
lradius 15.4228
lwrist -54.7614
lhand -14.2664 -13.3266
lfingers 7.12502
lthumb 11.8723 16.3168
rfemur 1.12928 21.3379 27.8284
rtibia -0.271799
rfoot -15.373 -32.4642
rtoes 12.5761
lfemur -2.44581 -36.5308 -8.73636
ltibia -1.08634
lfoot -4.16683 30.6465
ltoes -15.0063
102
root -0.954871 17.6119 7.52045 6.09186 13.3597 -6.63274
lowerback 7.99925 5.2329 7.43787
upperback -8.40225 8.32756 0.85596
thorax -12.7945 3.33686 -4.69161
lowerneck -7.51104 -11.1012 -7.18694
upperneck 3.67011 -14.7378 9.29183
head 3.52933 -7.08278 3.03385
rclavicle 4.03471e-014 3.47873e-016
rhumerus 23.3678 5.51146 -78.4278
rradius 36.6637
rwrist -6.0287
rhand 4.05066 -39.8649
rfingers 7.12502
rthumb 29.4641 -67.5479
lclavicle 4.03471e-014 3.47873e-016
lhumerus -88.3739 51.2914 -1.84679
lradius 15.3896
lwrist -55.0241
lhand -14.7735 -13.226
lfingers 7.12502
lthumb 11.3832 16.445
rfemur 1.54604 21.6041 27.9814
rtibia -0.500976
rfoot -15.9063 -33.3454
rtoes 13.6257
lfemur -2.4719 -36.8796 -8.79075
ltibia -1.13499
lfoot -4.00786 30.2793
ltoes -15.4284
103
root -0.961769 17.6112 7.55096 5.99017 14.0031 -6.53157
lowerback 7.85219 5.24895 7.31893
upperback -8.55833 8.32074 0.750529
thorax -12.8861 3.33219 -4.73428
lowerneck -7.45074 -11.2428 -7.19784
upperneck 4.62861 -14.9842 8.99611
head 3.80624 -7.20224 2.9035
rclavicle 3.93687e-014 1.06847e-014
rhumerus 21.2478 3.46407 -80.1761
rradius 34.5734
rwrist -3.69541
rhand 4.43534 -39.5022
rfingers 7.12502
rthumb 29.8312 -67.1199
lclavicle 3.93687e-014 1.06847e-014
lhumerus -89.3794 51.0516 -3.29415
lradius 15.3174
lwrist -55.6895
lhand -15.2843 -13.2755
lfingers 7.12502
lthumb 10.8905 16.4221
rfemur 1.93939 21.7024 28.0996
rtibia -0.659598
rfoot -16.2637 -33.9476
rtoes 14.1918
lfemur -2.366 -37.1821 -8.931
ltibia -1.21119
lfoot -3.91643 30.0172
ltoes -15.7055
104
root -0.967134 17.6096 7.57933 5.86787 14.4535 -6.43427
lowerback 7.57662 5.30382 7.15305
upperback -8.57723 8.3449 0.729747
thorax -12.7515 3.36888 -4.63876
lowerneck -7.60467 -11.3519 -7.57538
upperneck 5.63203 -15.169 9.04754
head 4.18356 -7.2766 2.91758
rclavicle -3.46569e-014 -2.6252e-014
rhumerus 19.7682 0.964601 -81.972
rradius 31.291
rwrist -0.470146
rhand 5.81468 -40.207
rfingers 7.12502
rthumb 31.1467 -67.5804
lclavicle -3.46569e-014 -2.6252e-014
lhumerus -90.6006 51.1132 -4.80244
lradius 15.2713
lwrist -56.1247
lhand -15.6761 -13.3448
lfingers 7.12502
lthumb 10.5126 16.3724
rfemur 2.23375 21.6 28.169
rtibia -0.667006
rfoot -16.6 -34.1804
rtoes 14.791
lfemur -2.19443 -37.2661 -9.11372
ltibia -1.26443
lfoot -3.8069 29.7282
ltoes -16.2817
